<?xml version="1.0" encoding="UTF-8"?><svg id="logo" xmlns="http://www.w3.org/2000/svg" viewBox="0 0 368.5 368.5"><defs><style>.cls-1{fill:#00a884;}</style></defs><g><polygon class="cls-1" points="184.25 265.69 265.69 265.69 265.69 102.81 184.25 102.81 184.25 62.09 306.41 62.09 306.41 306.41 184.25 306.41 184.25 265.69"/><path class="cls-1" d="m118.36,184.24c0,36.4,29.5,65.89,65.89,65.89V118.37c-36.4,0-65.89,29.5-65.89,65.88Z"/></g><g><polygon points="184.25 265.69 102.81 265.69 102.81 102.81 184.25 102.81 184.25 62.09 62.09 62.09 62.09 306.41 184.25 306.41 184.25 265.69"/><path d="m250.14,184.24c0,36.4-29.5,65.89-65.89,65.89V118.37c36.4,0,65.89,29.5,65.89,65.88Z"/></g></svg>